PathFileType	4	(x/y/z)	S01_M20_T09.trc
DataRate	CameraRate	NumFrames	NumMarkers	Units	OrigDataRate	OrigDataStartFrame	OrigNumFrames
240	240	5	51	mm	240	1	471
Frame#	Time	Sternum			R.Acromium			L.Acromium			Top.Head			R.ASIS			L.ASIS			R.PSIS			L.PSIS			R.Great.Tro			L.Great.Tro			R.Iliac.Crest			L.Iliac.Crest			V.Sacral			R.Thigh.Upper.Post			R.Thigh.Lower.Ant			R.Thigh.Lower.Post			R.Thigh.Upper.Ant			R.Knee.Lat			R.Knee.Med			R.Shank.Upper.Post			R.Shank.Lower.Ant			R.Shank.Lower.Post			R.Shank.Upper.Ant			R.Ankle.Lat			R.Ankle.Med			R.Heel.Upper			R.Heel.Med			R.Heel.Lat			R.Toe.Lat			R.Toe.Med			R.Toe.Tip			L.Thigh.Upper.Post			L.Thigh.Lower.Ant			L.Thigh.Lower.Post			L.Thigh.Upper.Ant			L.Knee.Lat			L.Knee.Med			L.Shank.Upper.Post			L.Shank.Lower.Ant			L.Shank.Lower.Post			L.Shank.Upper.Ant			L.Ankle.Lat			L.Ankle.Med			L.Heel.Upper			L.Heel.Med			L.Heel.Lat			L.Toe.Lat			L.Toe.Med			L.Toe.Tip			Cervical.Spine			Back			
		X1	Y1	Z1	X2	Y2	Z2	X3	Y3	Z3	X4	Y4	Z4	X5	Y5	Z5	X6	Y6	Z6	X7	Y7	Z7	X8	Y8	Z8	X9	Y9	Z9	X10	Y10	Z10	X11	Y11	Z11	X12	Y12	Z12	X13	Y13	Z13	X14	Y14	Z14	X15	Y15	Z15	X16	Y16	Z16	X17	Y17	Z17	X18	Y18	Z18	X19	Y19	Z19	X20	Y20	Z20	X21	Y21	Z21	X22	Y22	Z22	X23	Y23	Z23	X24	Y24	Z24	X25	Y25	Z25	X26	Y26	Z26	X27	Y27	Z27	X28	Y28	Z28	X29	Y29	Z29	X30	Y30	Z30	X31	Y31	Z31	X32	Y32	Z32	X33	Y33	Z33	X34	Y34	Z34	X35	Y35	Z35	X36	Y36	Z36	X37	Y37	Z37	X38	Y38	Z38	X39	Y39	Z39	X40	Y40	Z40	X41	Y41	Z41	X42	Y42	Z42	X43	Y43	Z43	X44	Y44	Z44	X45	Y45	Z45	X46	Y46	Z46	X47	Y47	Z47	X48	Y48	Z48	X49	Y49	Z49	X50	Y50	Z50	X51	Y51	Z51	

1	0	NaN	NaN	NaN	-1421	1509.2	436.36	-1454.3	1511.6	111.06	-1412.8	1826.5	254.93	NaN	NaN	NaN	NaN	NaN	NaN	-1593.4	1037.5	340.14	-1591	1033.6	237.07	-1442.1	938.9	516.82	-1439.2	958.84	92.106	-1438.7	1100.1	497.4	-1462.3	1078.5	95.751	-1602.9	998.6	285.85	-1497.3	642.2	512.02	-1428.1	561.09	506.65	-1500	551.34	503.25	-1419.5	652.53	513.47	-1498.6	487.93	506.4	-1467.7	472.56	363.75	-1649.1	429.1	516.46	NaN	NaN	NaN	-1705.8	390.6	502.94	-1621.7	371.01	501.27	-1873.4	272.82	465.86	-1839.7	239.75	379.36	-1917.9	317.85	398.35	-1930.3	292.9	366.55	-1946.1	297.71	428.73	-1894.1	119.99	498.29	-1857.2	93.441	382.67	NaN	NaN	NaN	-1366.6	675.49	120.4	-1261.7	638.38	120.12	-1326.1	595.35	140.26	-1311.6	717.76	99.698	-1246.9	535.27	133.26	-1231.8	547.04	273.52	-1276.5	392.87	114.07	-1203.2	311.84	140.14	-1264.8	315.52	117.25	-1213.2	387.7	132.68	-1256.2	102.69	150	-1230.9	115.83	249.72	-1325.5	72.637	198.52	-1314.1	48.386	231.84	-1317.3	47.179	169.79	-1106.3	42.224	134.74	-1080.5	52.861	255.81	-1017.5	63.544	203.49	-1532.7	1567.1	281.74	-1613	1256	312.59
2	0.0041667	NaN	NaN	NaN	-1416.8	1510.5	435.67	-1448.6	1512.5	110.2	-1407.8	1827.6	253.86	NaN	NaN	NaN	NaN	NaN	NaN	-1589	1038.4	339.08	-1586.2	1034.8	235.98	-1438.2	940.11	516.34	-1434.1	959.8	91.579	-1435.2	1101.1	496.91	-1457.2	1079.2	94.716	-1598.2	999.64	284.67	-1488.8	642.78	511.7	-1418.9	562.35	506.39	-1490.9	551.98	503.01	-1411.5	653.73	513.09	-1488.8	488.85	506.26	-1457.8	473.51	363.32	-1639.2	430.44	516.1	NaN	NaN	NaN	-1696	392.18	502.44	-1612	372.26	500.76	-1864.1	275.6	464.83	-1830.2	241.9	378.51	-1908.2	320.17	396.77	-1920.8	295.02	365.17	-1936.8	300.41	427.25	-1885.3	123.26	498.44	-1848	95.51	383.19	NaN	NaN	NaN	-1363.1	676.22	120.03	-1258.5	638.55	120.05	-1323.1	595.86	139.97	-1307.8	718.21	99.516	-1244.3	535.24	133.23	-1229.3	547.05	273.37	-1274.9	392.98	114.01	-1202	311.63	140.15	-1263.8	315.61	117.15	-1211.5	387.55	132.6	-1256.1	102.77	150.05	-1230.7	115.83	249.78	-1325.5	72.696	198.48	-1314	48.464	231.84	-1317.3	47.263	169.79	-1106.2	42.125	134.77	-1080.4	52.57	255.86	-1017.4	63.208	203.57	-1527.9	1568.2	280.75	-1608.4	1257.1	311.6
3	0.0083333	NaN	NaN	NaN	-1412.4	1511.8	434.96	-1442.7	1513.4	109.32	-1402.6	1828.7	252.77	NaN	NaN	NaN	NaN	NaN	NaN	-1584.3	1039.4	337.98	-1581.1	1036	234.85	-1434	941.39	515.86	-1428.8	960.8	91.038	-1431.6	1102.2	496.41	-1451.8	1080	93.669	-1593.3	1000.7	283.44	-1480.1	643.43	511.35	-1409.5	563.69	506.13	-1481.4	552.69	502.75	-1403.1	655.03	512.71	-1478.7	489.86	506.12	-1447.5	474.53	362.89	-1628.9	431.85	515.7	NaN	NaN	NaN	-1685.8	393.83	501.91	-1601.9	373.57	500.25	-1854.4	278.39	463.77	-1820.2	244.07	377.62	-1898.1	322.49	395.18	-1910.8	297.12	363.77	-1927	303.09	425.75	-1876.1	126.54	498.56	-1838.4	97.595	383.67	NaN	NaN	NaN	-1359.6	676.98	119.65	-1255.2	638.72	119.97	-1320.1	596.4	139.66	-1304	718.67	99.324	-1241.7	535.21	133.19	-1226.7	547.04	273.23	-1273.1	393.1	113.93	-1200.8	311.41	140.15	-1262.7	315.7	117.03	-1209.7	387.39	132.49	-1256	102.86	150.1	-1230.5	115.84	249.83	-1325.4	72.762	198.45	-1313.9	48.546	231.84	-1317.3	47.351	169.79	-1106.2	42.019	134.8	-1080.4	52.277	255.91	-1017.3	62.864	203.64	-1522.8	1569.4	279.73	-1603.6	1258.3	310.58
4	0.0125	NaN	NaN	NaN	-1407.8	1513.2	434.24	-1436.6	1514.3	108.43	-1397.2	1829.9	251.66	NaN	NaN	NaN	NaN	NaN	NaN	-1579.4	1040.4	336.85	-1575.9	1037.3	233.69	-1429.8	942.74	515.39	-1423.4	961.82	90.487	-1427.8	1103.3	495.9	-1446.1	1080.8	92.625	-1588.3	1001.9	282.19	-1471.1	644.15	510.99	-1399.7	565.12	505.88	-1471.7	553.47	502.48	-1394.4	656.41	512.33	-1468.2	490.96	505.97	-1436.9	475.64	362.45	-1618.2	433.33	515.27	NaN	NaN	NaN	-1675.3	395.52	501.34	-1591.4	374.95	499.71	-1844.3	281.16	462.7	-1809.8	246.23	376.71	-1887.7	324.77	393.57	-1900.5	299.17	362.36	-1916.9	305.72	424.24	-1866.4	129.78	498.65	-1828.2	99.664	384.12	NaN	NaN	NaN	-1355.9	677.76	119.26	-1251.8	638.9	119.88	-1316.9	596.96	139.33	-1300.1	719.15	99.121	-1239	535.19	133.13	-1224.1	547.03	273.07	-1271.4	393.22	113.84	-1199.5	311.19	140.14	-1261.5	315.78	116.91	-1207.9	387.23	132.38	-1255.8	102.94	150.15	-1230.4	115.85	249.88	-1325.3	72.836	198.41	-1313.9	48.633	231.84	-1317.2	47.443	169.79	-1106.1	41.908	134.83	-1080.3	51.984	255.96	-1017.2	62.515	203.71	-1517.6	1570.7	278.69	-1598.6	1259.5	309.51
5	0.016667	NaN	NaN	NaN	-1403.2	1514.6	433.51	-1430.4	1515.3	107.54	-1391.6	1831.1	250.55	NaN	NaN	NaN	NaN	NaN	NaN	-1574.5	1041.5	335.7	-1570.5	1038.7	232.51	-1425.5	944.16	514.92	-1417.8	962.87	89.931	-1423.9	1104.5	495.39	-1440.3	1081.7	91.598	-1583.2	1003.1	280.92	-1461.8	644.93	510.61	-1389.7	566.64	505.64	-1461.6	554.32	502.19	-1385.5	657.88	511.96	-1457.5	492.16	505.82	-1425.9	476.83	362	-1607.3	434.86	514.79	NaN	NaN	NaN	-1664.5	397.24	500.74	-1580.7	376.39	499.18	-1833.8	283.86	461.62	-1799.1	248.36	375.78	-1877	326.97	391.99	-1889.8	301.14	360.97	-1906.5	308.24	422.75	-1856.2	132.93	498.71	-1817.6	101.69	384.52	NaN	NaN	NaN	-1352.2	678.57	118.86	-1248.3	639.1	119.78	-1313.8	597.53	138.98	-1296.1	719.64	98.909	-1236.3	535.18	133.05	-1221.4	547	272.9	-1269.6	393.34	113.74	-1198.2	310.96	140.12	-1260.3	315.85	116.79	-1206.1	387.07	132.25	-1255.7	103.04	150.2	-1230.2	115.86	249.92	-1325.2	72.918	198.38	-1313.8	48.724	231.83	-1317.2	47.539	169.78	-1106	41.791	134.86	-1080.2	51.697	256.01	-1017.1	62.166	203.77	-1512.3	1572	277.63	-1593.5	1260.8	308.41
